<svg xmlns="http://www.w3.org/2000/svg" viewBox="0 0 775.92 430.58"><defs><style>.cls-1{fill:#e6191e;stroke:#e6191e;stroke-width:5px;}.cls-1,.cls-2,.cls-3{stroke-miterlimit:10;}.cls-2,.cls-3{fill:#fff;stroke:#fff;}.cls-3{stroke-width:3px;}</style></defs><title>Asset 8</title><g id="Layer_2" data-name="Layer 2"><g id="Layer_1-2" data-name="Layer 1"><g id="layer2"><path class="cls-1" d="M218.28,339.77c-13.1-1.1-32.4-3.7-42.8-5.9-11.9-2.4-37-9.5-36.4-10.2.3-.2,3.8.2,7.8.9,11.5,2,59.6,1.6,72.4-.5,31.6-5.4,63.3-17,107-39.2,23.6-12,34-17.8,90-50,53.6-30.8,83.5-45.2,104.5-50.3,22-5.5,67.5-7.3,90.5-3.8,11.3,1.8,26.6,5.3,34.5,8,4.5,1.6,4.5,1.6,2.2-.3-3.2-2.7-24.4-13.5-33.8-17.1a167.24,167.24,0,0,0-59.6-11c-16.2,0-39.3,3-51.1,6.6-1,.3,1.3-2.6,5.1-6.4a65.88,65.88,0,0,0,10.3-13.6c2.4-4.7,4.1-6.8,5.8-7.3,4.9-1.2,47.4.5,60.6,2.6,63.5,9.6,117.5,36.2,160.1,78.6,10.3,10.2,28.9,32.4,28,33.3-.2.2-4.2-1.9-8.8-4.7-11.6-7-35.3-18.2-47.3-22.4-33.5-11.8-58.9-16.5-94.1-17.4-37.2-1-66.1,3.3-101.4,14.9-32.7,10.7-58.5,23.6-117,58.5-39.8,23.7-40.9,24.4-59.8,33.7-26.3,12.9-44.4,18.4-70.2,21.2C261.18,339.47,227.58,340.47,218.28,339.77Z"/><path class="cls-1" d="M145.78,302.37a272.39,272.39,0,0,1-48-10.6c-27.4-9.1-59.5-27.5-71.5-41-7.9-8.8-20.5-24.6-20.5-25.6,0-.4,3.7,1.6,8.3,4.3,61.7,37.8,146,50.5,216.9,32.8a212.15,212.15,0,0,0,44.6-16.4c17.4-8.4,27.5-14.4,58.2-34.5,26.9-17.6,35.9-23.2,48.8-30.3l7.9-4.4L396,179c10.2,4.3,20.8,5.9,39.8,5.9h17.5l-21,10.6c-11.5,5.8-33.4,17.7-48.5,26.4-44.8,25.9-59.6,34.1-77,42.9-38,19.3-68.1,30-100.5,35.7C192.58,302.87,160.08,303.87,145.78,302.37Z"/></g><g id="layer3"><path class="cls-2" d="M442.48,429c-9.1-2.5-13.8-7.7-14.5-15.9-.2-3,0-5.7.5-6s5.1-.7,10.3-.8l9.4-.2.2,3.2c.2,4.1,2.6,6.7,7,7.5,7.6,1.5,15.4-3.3,15.4-9.5,0-3.5-2.2-4.7-14-7.9-15.2-4-19.3-6.5-21-13.1-1.4-5.2.4-13,4.4-18.2,6.8-9,18.8-13.4,34.4-12.5,15.1.9,21.5,6,21,16.8l-.3,5.5h-19.8l-.2-3.4c-.4-4.8-2.8-6.4-8.9-5.8-5.8.5-9.6,4-9.6,8.7,0,3.7,1.4,4.4,14.8,8.2,17.2,4.8,20.2,7.2,20.2,16.7,0,11.1-7.3,20.8-18.9,25.2C465.68,430.17,449.48,431,442.48,429Z"/><path class="cls-3" d="M499.28,425.67c.4-1.6,3.5-16.4,7-33s6.7-31.3,7.1-32.7l.6-2.6h26.9c14.8,0,26.9.3,26.9.8a32.61,32.61,0,0,1-.9,4.2c-.5,1.9-1.2,4.7-1.5,6.3l-.6,2.7h-33.9l-1,3.8c-.5,2-1.2,5.2-1.6,7l-.7,3.2H560l-.7,3.3c-.4,1.7-1.1,4.9-1.6,7l-1,3.7h-31.9l-.6,2.8c-.3,1.5-1,4.3-1.5,6.2-1.6,6.3-2.4,6,16.1,6,19.3,0,18-.7,15.9,9l-1.1,5h-55Z"/><path class="cls-3" d="M565.78,427.17c.1-.7,3.3-16.6,7.3-35.3l7.3-34,14-.3,13.9-.2,6,25.1c3.3,13.8,6.2,25.2,6.6,25.4s2.9-10.9,5.8-24.8,5.4-25.3,5.6-25.5,4.1-.2,8.7,0l8.4.3-7.4,35.3-7.5,35.2h-27.3l-5.8-25.7c-3.2-14.2-6.2-26.4-6.5-27s-2.8,9.2-5.5,22-5.2,24.9-5.7,27l-1,3.7h-8.4C568.08,428.37,565.78,428.07,565.78,427.17Z"/><path class="cls-3" d="M643.78,427.77c0-.4,9.6-16.4,21.2-35.5l21.3-34.9h12.2c11.9,0,12.3.1,12.8,2.3.3,1.2,3,16.2,6.1,33.2s5.8,32,6.1,33.3c.5,2.2.4,2.2-11,2.2h-11.4l-.7-7-.7-7H671l-3.9,6.8-3.9,6.7-9.7.3C648.18,428.27,643.78,428.17,643.78,427.77Zm53.7-30.6c-.4-2.4-.9-7.4-1.2-11.3s-.9-8.7-1.2-10.9l-.5-3.9-7.9,14.4c-4.3,7.9-7.9,14.7-7.9,15.2s4.3.7,9.6.7H698Z"/><path class="cls-3" d="M731.78,427.17c.1-.7,3.4-16.6,7.4-35.3l7.2-34,10.2-.3c7.8-.2,10.2,0,10.2,1-.1.7-3.4,16.6-7.4,35.3l-7.2,34-10.2.3C734.18,428.37,731.78,428.17,731.78,427.17Z"/><path class="cls-2" d="M572.08,348.27c-4.8-1.4-5.8-6.9-1.2-6.9a1.79,1.79,0,0,1,1.9,1.5c0,2.1,3.5,3.7,6.6,2.9,1.7-.4,3.1-1.8,4-4,2-4.7,1.8-5.8-.8-4a10.33,10.33,0,0,1-5.3,1.6c-5.1,0-7.5-2.4-7.5-7.7,0-8.7,4.8-14.3,12.3-14.3,1.8,0,3.9.6,4.6,1.3,1.1,1,1.4,1,1.8,0,.4-1.2,4.3-1.9,4.3-.9,0,.3-.9,5.3-2.1,11.3-2.4,12.3-4,16.7-6.6,18.1A18.93,18.93,0,0,1,572.08,348.27Zm11.6-14.3c2.7-2.9,3.9-9.9,2.1-12.1-1.4-1.7-5.3-2-8-.5-1.9,1-4,5.9-4,9.6C573.78,336.27,579.78,338.07,583.68,334Z"/><path class="cls-2" d="M497.18,344.17c.4-2.4,1.6-9.4,2.8-15.5,1.8-9.6,2.4-11.3,3.9-11.3a1.73,1.73,0,0,1,1.9,1.6c0,1.4.2,1.4,2.2,0,2.3-1.7,8.5-2.1,10.4-.8,1.7,1.1,3.4,4.8,3.4,7.6,0,4.2-3,10.5-6,12.6s-10.4,2.8-11.5,1c-1.3-2.1-2.3-.8-2.9,4-.6,4.2-1,5-2.8,5S496.58,348,497.18,344.17Zm15.1-7.4c3.9-1.5,6.2-12.8,3.1-15.3-2.6-2.2-6.9-.9-9.3,2.8s-3.1,9.9-1.1,11.9C506.28,337.47,509.68,337.77,512.28,336.77Z"/><path class="cls-2" d="M426.78,339.67c0-.9,4.6-26,5.5-30,.5-2.2,1-2.3,10.5-2.3,9.3,0,10,.1,10,2s-.7,2-8,2c-8.7,0-8.4-.2-9.5,6.3l-.6,3.7h7.7c6.5,0,7.5.2,7,1.6a15.63,15.63,0,0,0-.6,2c0,.2-3.4.4-7.5.4h-7.4l-.6,3.8c-1.2,7.1-1.7,6.7,6.8,7,6.8.2,7.8.5,7.5,2s-1.8,1.7-10.6,2C431.38,340.27,426.78,340.07,426.78,339.67Z"/><path class="cls-2" d="M456.48,339.67c-.3-.4.4-5.6,1.6-11.5,1.6-8.9,2.3-10.8,3.8-10.8a2.56,2.56,0,0,1,2.2,1.3c.3.9.7.9,2-.1,2.4-2,8.3-1.9,10.6.2,1.2,1.1,2.1,1.3,2.5.7,1.1-1.8,7.6-3.1,10.2-2.1,4,1.6,4.6,4.5,2.6,14-1.3,6.8-2.1,8.6-3.6,8.8-1.8.4-1.8,0-1.1-5.4a82.15,82.15,0,0,0,.9-9.9c.1-3.7-.1-4-2.9-4.3-4.8-.5-6.3,1.5-8.3,10.8-1.4,6.6-2.2,8.5-3.5,8.5-2.2,0-2.2-.1-.7-9.4.7-4.4.9-8.4.6-9-1-1.5-5.9-1.4-8.1.3-1.2.9-2.4,4.1-3.5,9.7-1.1,6.1-2,8.5-3.2,8.7A2.24,2.24,0,0,1,456.48,339.67Z"/><path class="cls-2" d="M524.78,339c0-1.2,1.9-11.8,3.6-19.3.5-2.5,3.9-3.2,4.7-1,.4,1,.7,1,1.8,0,2.1-2.1,5.9-1.6,5.9.7,0,1.5-.7,2-2.8,2-4.1,0-5.9,2.6-7.7,10.9-.8,4-1.5,7.4-1.5,7.7s-.9.4-2,.4S524.78,339.77,524.78,339Z"/><path class="cls-2" d="M546.38,338.07c-2.9-2.9-3.2-6.2-1.2-12,1.9-5.2,4.2-7.5,8.6-8.7,7.3-2,12.6,2.4,11.3,9.3-.5,2.6-.7,2.7-8.3,2.7-8.7,0-10.4,1.3-7.5,5.6a5.38,5.38,0,0,0,9.1-.1c1.6-2.4,5.4-3.5,5.4-1.6,0,.6-1,2.2-2.3,3.7-1.8,2-3.5,2.8-7.4,3.1C549.58,340.57,548.58,340.27,546.38,338.07Zm14.2-14.4c-.2-2.4-.8-2.9-3.6-3.1-3.5-.4-7.2,1.9-7.2,4.5,0,.9,1.6,1.3,5.6,1.3C560.78,326.37,560.88,326.37,560.58,323.67Z"/><path class="cls-2" d="M597.38,338.77c-2.5-2.4-1.9-6.2,1.3-9.5,2.5-2.4,3.7-2.9,8.1-2.9,5.4,0,7.3-1.7,5.3-4.9-1.5-2.4-4.9-2.5-7.2-.2s-5.1,2.7-5.1.6c0-1.8,3.5-4.1,7.6-4.9,3.6-.8,8.2.7,9.1,3,1,2.7-2.7,20.4-4.3,20.4a3,3,0,0,1-2.2-1.6c-.8-1.4-1-1.4-2.1,0C606.18,340.87,599.38,340.87,597.38,338.77Zm10.4-2.4c2.3-1.2,4.5-6.9,2.7-7.1-2.5-.2-6.3.3-7.9,1.2-1.8,1-2.5,4.9-1.1,6.2C602.38,337.67,605.68,337.47,607.78,336.37Z"/><path class="cls-2" d="M622.28,337.87c-7.9-7.8,4.9-26.1,14-20.1,2.9,1.9,2.9,1.8,4.2-5.4.7-3.6,1.3-4.6,3.2-4.8s2.2,0,1.8,1.5c-.3,1-1.8,8.4-3.3,16.6-2.4,12.5-3,14.7-4.6,14.7a1.62,1.62,0,0,1-1.8-1.4c0-1.3-.4-1.3-2.7,0C628.88,341.07,625,340.67,622.28,337.87Zm10.7-1.6c2.4-1.3,4.8-6.7,4.8-10.8a4.92,4.92,0,0,0-2.4-4.6c-4.9-3.3-10.6,2.2-10.6,10.3C624.78,336.87,628,339,633,336.27Z"/><path class="cls-2" d="M651,338.07c-4.4-4.7-2.1-15.1,4.3-19.3,3.5-2.3,10.9-2.3,13.4,0,4.6,4.2,3.3,13.4-2.4,18.5C661.58,341.37,654.38,341.67,651,338.07Zm10.9-1.7c4.2-2.3,6.6-12.3,3.5-14.9-2.4-2-7.7-.9-9.8,2-2.8,3.7-3.5,10.1-1.3,12.2C656.18,337.57,659,337.87,661.88,336.37Z"/><path class="cls-2" d="M676.58,339.27c-2.4-1.4-2.4-5.9,0-5.9a4.38,4.38,0,0,1,3,2c1.6,2.5,5.4,2.6,7.6.1s1.4-3.8-3.7-5.2a20.56,20.56,0,0,1-5.4-2.1c-2.1-1.7-1.5-5.7,1.2-8.3,4.4-4.4,15.5-2.9,15.5,2.1,0,.8-1,1.4-2.5,1.4s-2.5-.6-2.5-1.5c0-2-6.3-2-8,0s-.4,3.4,5.7,5.4c5,1.7,6,3.2,4.9,7.7S681.38,342.07,676.58,339.27Z"/><path class="cls-2" d="M717.28,337.87c-7.9-7.8,4.9-26.1,14.1-20,1.4.9,2.7,1.5,2.8,1.3a37.43,37.43,0,0,0,1.2-5.8c.8-4.7,1.2-5.5,3.2-5.8s2.3,0,1.9,1.5c-.3,1-1.8,8.4-3.2,16.6-2.4,12.8-3,14.7-4.6,14.7-1.1,0-1.9-.6-1.9-1.4,0-1.3-.4-1.3-2.7,0C723.88,341.07,720,340.67,717.28,337.87Zm10.6-1.5c5-2.7,6.6-12.8,2.5-15.5-4.9-3.3-10.6,2.2-10.6,10.3C719.78,336.87,723,339,727.88,336.37Z"/><path class="cls-2" d="M745.08,338.87c-4.7-3.3-3.3-15.5,2.2-19.1,5.8-3.8,14.3-3.5,16.5.6,2.8,5.2-.1,14.9-5.4,18.1C754.68,340.77,748,341,745.08,338.87Zm11.5-3.5c3.1-2.9,4.8-9.3,3.4-12.5-1.2-2.5-4.9-3.3-8.7-1.9s-6.1,12.4-3.3,15.2C749.78,338,754.18,337.57,756.58,335.37Z"/><path class="cls-2" d="M606.08,310.67c-2-.7-1.5-2.5.5-1.9,2.2.7,4.7-.8,3.8-2.3a3.21,3.21,0,0,0-2.4-1.1c-1.2,0-1.3-.3-.4-1.2,1.6-1.6,1.5-2.8-.1-2.8-2.6,0-4.7-3.6-4.7-7.9,0-8.4,5.7-15.1,13-15.1,3.4,0,7,3,7,6,0,2.8-3.3,2.6-4.5-.2-1.4-3.2-5-3.4-7.8-.6s-4.2,9.9-2.7,12.8c1.4,2.6,6.4,2.7,8.2.2s4.8-3.6,4.8-1.6-4.5,6.4-6.8,6.4c-2.9,0-3.3,1.1-1.1,2.9C616.88,307.47,611.18,312.77,606.08,310.67Z"/><path class="cls-2" d="M469.58,301.27c-2.8-1.1-4.4-4.1-3.3-5.9s4.2-1.1,4.8,1c.6,2.4,5.8,2.8,7.7.5s.5-4.1-4.4-5.4c-5.2-1.3-7.1-3.7-5.6-7.5,2.5-6.8,17-7.7,17-1.1,0,1.8-.5,2.5-2,2.5-1.1,0-2-.7-2-1.5,0-2-4.3-2.9-7-1.5-3.4,1.8-2,4.2,3.4,5.9,5.6,1.8,7.2,3.7,6.2,7.4C483.18,300.47,475.28,303.37,469.58,301.27Z"/><path class="cls-2" d="M492.78,301.17c-3.3-1.7-4.1-6.8-1.1-6.8a3,3,0,0,1,2.6,2c.5,1.5,1.5,2,3.9,2,6.3,0,7.5-5.2,1.5-6.4-4.6-.9-7.9-3.3-7.9-5.7,0-1.1,1.3-3.4,2.9-5a8.35,8.35,0,0,1,6.8-2.9c4.5,0,8.3,2.3,8.3,5.1,0,2.6-3.6,2.5-5-.1-1.3-2.4-5.2-2.6-7-.5-1.9,2.3-.5,4.1,4.4,5.5,5.3,1.4,7,3.7,5.7,7.2C505.88,300.87,497.88,303.77,492.78,301.17Z"/><path class="cls-2" d="M518.28,301.37a8.41,8.41,0,0,1-3.4-2.4c-1.9-2.3-1.7-9.6.4-13.5,4.4-8.7,18.2-9.6,20.4-1.5C538.68,294.77,528,305.37,518.28,301.37Zm9.4-4.6c4.9-4.1,5.5-13.5,1-14.9-3-1-7.8,1.3-9.4,4.6-2.3,4.3-1.9,9.5.7,11.3C523,300,524.08,299.77,527.68,296.77Z"/><path class="cls-2" d="M544.08,301.37c-6.4-2.7-5.5-14.3,1.6-20.3,3.7-3.1,8.4-3.5,11.9-1.1,2.9,2,3,6.4.2,6.4-1.1,0-2-.6-2-1.4,0-2.2-2.8-3.9-5.5-3.2-3.4.9-5.7,5.7-5.3,11.4.3,4.4.5,4.7,3.2,5,2.1.3,3.6-.3,5.3-2.2,2.7-3,5.9-2.6,4.2.5C555.48,300.57,548.38,303.17,544.08,301.37Z"/><path class="cls-2" d="M580,300.77c-3-2.1-2.8-5.7.6-9.4,2.2-2.6,3.7-3.2,8.5-3.7,5.5-.6,5.8-.7,5.5-3.2-.4-3.5-5.5-4.2-8.3-1.1-2.1,2.3-4.5,2.6-4.5.6,0-2.6,5-5.6,9.2-5.6,7.6,0,9.2,2.9,6.9,12-.5,1.9-1.2,5.2-1.6,7.3-.4,2.8-1.1,3.7-2.5,3.7-1.1,0-2-.4-2-.9s-1.2-.3-2.7.5C585.48,302.77,582.78,302.77,580,300.77Zm11-4.1a11.28,11.28,0,0,0,2.2-4c.7-2.1.4-2.3-2.6-2.3-5.4,0-9.9,4.6-7.1,7.3C584.78,299,589.48,298.37,591,296.67Z"/><path class="cls-2" d="M629,300.77c-2.4-1.6-2.9-5.3-1.1-8.6,1.3-2.5,6.8-4.8,11.4-4.8,3.4,0,3.6-.2,3.3-2.7-.2-2.3-.8-2.9-3.5-3.1-2.4-.2-3.4.2-4.3,1.7-1,2.1-5,3-5,1.2a8,8,0,0,1,1.8-3.1c2.6-3.2,10.8-4,14-1.4l2.3,1.9-1.8,9.8c-1.5,7.9-2.1,9.7-3.5,9.7-1,0-1.8-.5-1.8-1s-1.3-.4-3,.5C634.08,302.77,631.78,302.77,629,300.77Zm10.8-4.4a6.92,6.92,0,0,0,2-4c0-1.6-.7-2-3.3-2-5.3,0-9.8,4.6-7,7.3C632.88,299.07,637.88,298.27,639.78,296.37Z"/><path class="cls-2" d="M655.78,301.17c-5-2.7-6-9.1-2.4-16.1,3.3-6.3,12.6-8.7,17.9-4.5,2.5,2,2.7,2.5,2.3,8-.4,5.1-.9,6.4-4,9.4C665.58,302,659.88,303.27,655.78,301.17Zm10-4.6c6.5-6.6,4.2-16.7-3.4-14.8-5.8,1.4-9,12.8-4.4,16C661.18,300,662.58,299.77,665.78,296.57Z"/><path class="cls-2" d="M723.08,301.37c-7-3-5.2-17.2,2.8-21.2,10.9-5.7,19.1,2.2,14.1,13.5-1.1,2.5-3.2,5.3-4.6,6.2C732.28,301.87,726.08,302.67,723.08,301.37Zm8.2-3.2c3.4-1.5,5.5-5.6,5.5-10.7,0-3-.5-4.3-1.9-5.1-3.1-1.6-4.8-1.2-8.1,1.8-4.1,3.7-5.1,10.1-2.1,13.1C727.08,299.67,727.78,299.77,731.28,298.17Z"/><path class="cls-2" d="M748.78,301.27c-2.8-1.1-4-2.6-4-5.1s3.7-2.3,5,.2c2,3.8,10.2,1.6,8.7-2.3-.3-.8-2.6-1.9-5.1-2.6-5.2-1.3-7.1-3.7-5.6-7.5,2.5-6.6,17-7.6,17-1.1,0,3.2-2.5,3.3-5,.3-1.5-1.9-2.2-2.1-4.6-1.3-4.5,1.6-3.8,4.5,1.6,6.4,6,2.1,7,2.8,7,5.2,0,3.3-3,6.8-6.9,7.9C752.58,302.57,752,302.57,748.78,301.27Z"/><path class="cls-2" d="M440.58,285.37c8.7-14.4,10-16,12.5-16,1.5,0,2.7.3,2.7.8s1.5,7.6,3.4,16l3.3,15.3-2.6-.3c-2-.2-2.7-1-3.4-4l-.9-3.8h-15.4l-2.3,4c-1.6,2.9-2.9,4-4.6,4C431,301.37,431.48,300.27,440.58,285.37Zm13.8,1.3c-.3-1.6-.8-4.6-1.2-6.8-1.2-7-.8-7.2-7.7,4.8l-2.8,4.7H455Z"/><path class="cls-2" d="M563.78,300.47c0-.8,2.2-12.2,3.5-18.7.5-2.3,4.5-4.1,4.5-2.1,0,1.2-2.6,15.4-3.5,19.5C567.78,301.27,563.78,302.47,563.78,300.47Z"/><path class="cls-2" d="M693.58,299.67c-2.5-2.9-3-5.8-1.7-10.7,1.5-6.2,6.5-10.6,11.9-10.6,2.1,0,4.2.5,4.5,1,1.3,2.2,2.4.8,3.2-4.2.7-4.5,1.2-5.3,3.2-5.6s2.3,0,1.8,2c-.3,1.2-1.5,7.5-2.7,13.8-2.9,16.4-2.8,16-5,16-1.1,0-2-.5-2-1,0-.7-.6-.7-1.9,0C701.78,302,695.28,301.57,693.58,299.67Zm13.7-5.4c2.2-4.2,2-10.6-.4-11.9-3.2-1.7-5.8-1.2-8,1.6-3.8,4.8-4,13.8-.3,14.6C701.58,299.27,705.78,297.27,707.28,294.27Z"/><path class="cls-2" d="M634.78,273.17c0-2.4,1.8-3.2,7.6-3.3,4.8,0,5.2.1,4.2,1.8-.8,1.6-1.7,1.8-5.2,1.4-2.7-.4-4.7-.2-5.4.5C635.08,274.47,634.78,274.37,634.78,273.17Z"/><path class="cls-2" d="M568.78,271.37c0-1.5.7-2,2.5-2s2.5.5,2.5,2-.7,2-2.5,2S568.78,272.87,568.78,271.37Z"/><path class="cls-3" d="M417.38,184.27c-22.9-3-37.1-11.3-43.9-25.7-3-6.3-3.2-7.3-3.2-18.2,0-6.3.3-12.3.7-13.2.7-1.6,2.8-1.8,25-1.8h24.3l-.3,6.3c-.6,10.3,3.4,16.5,12.7,19.6,4.8,1.6,18.8,1.4,24.7-.4,6.2-1.8,13.1-7.6,15.5-12.9,2.3-5.1,2.5-13.4.3-16.4-2.4-3.5-5.3-4.5-32.9-12.1-28.1-7.7-36-10.9-42.5-17.2-18.7-18.2-9.5-56.2,18.3-75.1,16.7-11.4,39.3-16.7,65.6-15.5,27.9,1.2,44.6,8.8,51.8,23.6,2.5,5,2.8,6.7,2.8,16.1,0,5.8-.3,11.7-.8,13.3l-.7,2.7H486l.1-6.7c.2-8.7-1.9-12.7-7.6-15.4s-16-2.5-23.1.1c-12.3,4.7-19.2,19-13.1,27.7,2.2,3.2,6.5,4.8,32.1,11.9,26.8,7.4,36.9,11.6,43.2,17.7,7.3,7.1,9.4,12.6,9.3,24.7-.1,18.3-9.7,37.5-24.2,48.7C483.08,181.17,449.48,188.37,417.38,184.27Z"/><path class="cls-3" d="M6.28,178.17c1.6-1.8,41-41.4,87.5-88l84.5-84.8h29.2c22.8,0,29.3.3,29.3,1.3.1.6-7.9,40.2-17.7,88l-17.8,86.7h-55.2l4.3-16.7c2.4-9.3,4.4-17.1,4.4-17.5s-15.9-.8-35.2-.8l-35.3.1L68,163.87l-16.3,17.5H3.38Zm157.5-65.3c0-.3,4.7-16.6,10.5-36.2s10.3-35.8,10.1-36-62.5,66-65.9,70.4l-1.8,2.3h23.5C153.18,113.37,163.78,113.17,163.78,112.87Z"/><path class="cls-3" d="M218.48,178.67c-.3-.7,35.6-170.9,36.8-174,.3-1,14.5-1.3,66-1.3,61.7,0,65.5.1,65.5,1.8,0,.9-1.4,8.6-3.2,16.9l-3.2,15.3-42.1.2-42,.3-3.2,15c-1.7,8.3-3.4,16.2-3.7,17.7l-.5,2.8,39.2.2c34.2.3,39.2.5,39,1.8-.1.8-1.6,8.4-3.4,16.7l-3.2,15.3-39.5.2-39.5.3-3.8,17.5c-2.1,9.6-3.8,18.1-3.9,18.8,0,1,8.7,1.2,42.3,1.2,33.8-.1,42.3.2,42.5,1.2.1.7-1.3,8.3-3.1,16.8l-3.4,15.5-66.6.3C248.88,179.27,218.68,179.07,218.48,178.67Z"/></g></g></g></svg>